<svg width="119" height="64" viewBox="0 0 119 64" fill="none" xmlns="http://www.w3.org/2000/svg">
<path d="M56.5 27.6699C59.8333 29.5944 59.8333 34.4056 56.5 36.3301L23.5 55.3827C20.1667 57.3072 16 54.9016 16 51.0526L16 12.9474C16 9.09843 20.1667 6.69281 23.5 8.61731L56.5 27.6699Z" fill="#3C90FF"/>
<path d="M74.5 27.6699C77.8333 29.5944 77.8333 34.4056 74.5 36.3301L41.5 55.3827C38.1667 57.3072 34 54.9016 34 51.0526L34 12.9474C34 9.09843 38.1667 6.69281 41.5 8.61731L74.5 27.6699Z" fill="#F96900"/>
<path d="M87.0001 26.8038C91.0001 29.1132 91.0001 34.887 87.0001 37.1964L58.5001 53.6505C56.5001 54.8051 54.0002 53.3621 54.0001 51.0528L54.0001 12.9473C54.0001 10.638 56.5001 9.195 58.5001 10.3497L87.0001 26.8038Z" stroke="black" stroke-width="4"/>
<path d="M84 26.8038C80 29.1132 80 34.887 84 37.1964L112.5 53.6505C114.5 54.8051 117 53.3621 117 51.0528L117 12.9473C117 10.638 114.5 9.195 112.5 10.3497L84 26.8038Z" stroke="black" stroke-width="4"/>
<path d="M80 54H92" stroke="black" stroke-width="4"/>
</svg>
